<?xml version="1.0" standalone="no"?>
<!DOCTYPE svg PUBLIC "-//W3C//DTD SVG 20010904//EN"
 "http://www.w3.org/TR/2001/REC-SVG-20010904/DTD/svg10.dtd">
<svg version="1.0" xmlns="http://www.w3.org/2000/svg"
 width="1024.000000pt" height="1024.000000pt" viewBox="0 0 1024.000000 1024.000000"
 preserveAspectRatio="xMidYMid meet">

<g transform="translate(0.000000,1024.000000) scale(0.100000,-0.100000)"
fill="#000000" stroke="none">
<path d="M3310 7951 c-91 -28 -164 -102 -192 -195 -9 -33 -30 -218 -48 -431
-23 -282 -40 -479 -59 -690 -11 -121 -25 -287 -31 -368 -9 -130 -14 -157 -41
-220 -108 -251 -144 -454 -136 -754 4 -158 9 -204 31 -290 64 -253 188 -491
368 -703 34 -41 69 -83 77 -93 12 -15 2 -29 -100 -135 -225 -233 -405 -503
-510 -762 -145 -361 -185 -562 -196 -985 -5 -205 -4 -248 10 -296 20 -67 68
-120 124 -137 31 -9 615 -12 2514 -12 2387 0 2475 1 2514 19 52 24 91 66 110
120 28 81 16 531 -20 742 -21 120 -89 366 -132 474 -120 303 -299 584 -526
825 -33 36 -76 82 -95 102 l-35 37 56 60 c316 342 477 795 437 1231 -16 176
-42 297 -101 462 -70 197 -75 223 -94 478 -9 124 -27 344 -40 490 -13 146 -34
380 -45 520 -12 140 -26 273 -31 295 -23 88 -91 169 -173 206 -55 25 -167 25
-221 0 -41 -18 -197 -134 -620 -459 -132 -102 -260 -200 -285 -219 -24 -18
-54 -36 -65 -39 -12 -3 -88 4 -170 16 -245 34 -443 44 -628 31 -146 -11 -422
-45 -455 -56 -11 -4 -140 91 -756 558 -222 168 -257 187 -345 186 -37 0 -77
-4 -91 -8z m2110 -1297 c604 -80 1162 -431 1389 -874 82 -160 103 -241 109
-412 5 -172 -9 -253 -66 -388 -71 -170 -143 -274 -291 -421 -200 -199 -515
-368 -844 -453 -358 -93 -755 -100 -1116 -20 -370 82 -704 257 -942 494 -169
167 -256 307 -315 505 -25 81 -27 106 -28 245 0 189 17 260 100 428 125 253
330 464 607 626 416 244 894 336 1397 270z m-1899 -3559 c-136 -225 -193 -424
-208 -722 l-6 -133 -215 0 -215 0 6 148 c10 254 50 464 126 666 104 275 269
525 483 731 l93 90 3 -333 2 -333 -69 -114z m3284 631 c155 -170 266 -333 355
-518 131 -277 189 -541 190 -870 l0 -98 -213 0 -214 0 -6 153 c-10 272 -71
482 -206 711 l-61 102 0 333 0 333 40 -32 c22 -17 74 -69 115 -114z m-595
-246 l0 -250 -1095 0 -1095 0 0 245 c0 141 4 245 9 245 5 0 46 -16 90 -35 180
-76 420 -139 655 -170 151 -19 501 -20 656 -1 241 30 568 116 725 191 28 13
51 24 53 24 1 1 2 -111 2 -249z m-270 -722 c31 -16 51 -36 67 -67 21 -40 23
-57 23 -199 0 -185 -13 -225 -85 -267 l-43 -25 -799 2 -800 3 -37 29 c-59 44
-66 73 -66 256 0 169 7 207 48 243 51 46 53 46 872 47 l776 0 44 -22z"/>
<path d="M4088 5750 c-81 -24 -150 -90 -176 -169 -18 -51 -14 -140 7 -187 64
-140 215 -196 353 -130 96 45 147 126 148 231 0 173 -170 304 -332 255z"/>
<path d="M6000 5751 c-158 -52 -235 -220 -166 -366 71 -153 263 -196 403 -89
144 110 116 350 -52 436 -43 22 -144 33 -185 19z"/>
<path d="M4898 5124 c-60 -32 -76 -123 -33 -187 26 -37 70 -67 100 -67 13 0
15 -12 13 -72 l-3 -72 -53 -43 c-39 -32 -62 -43 -87 -43 -19 0 -37 5 -40 11
-4 6 -25 24 -47 40 -59 42 -109 40 -154 -5 -28 -28 -34 -42 -34 -75 0 -53 18
-88 71 -135 64 -59 121 -81 209 -81 93 0 167 32 230 101 l42 45 46 -46 c25
-25 68 -58 96 -73 43 -23 63 -27 131 -26 67 0 89 4 135 28 99 50 150 113 150
187 0 33 -6 47 -34 75 -49 49 -96 48 -164 -6 -70 -56 -98 -54 -168 11 l-54 52
0 68 c0 64 2 69 21 69 28 0 86 36 100 62 27 49 29 80 10 124 -31 69 -50 74
-268 74 -147 -1 -194 -4 -215 -16z"/>
</g>
</svg>
